<svg xmlns="http://www.w3.org/2000/svg" width="120" height="50" viewBox="0 0 120 50"><rect width="100%" height="100%" fill="#f0f9ff"/><path fill="#0ea5e9" d="M28.98 20.025v6.52q0 .86-.21 1.54-.21.69-.63 1.17-.41.48-1.04.74-.62.26-1.45.26-.37 0-.74-.04-.36-.05-.76-.15.02-.28.05-.56t.05-.56q.02-.15.12-.25.1-.09.29-.09.12 0 .31.05t.49.05q.4 0 .7-.12.31-.11.52-.37.21-.25.31-.65.11-.4.11-.98v-6.56zm9.11 7.73q.15 0 .27.12l.74.81q-.62.76-1.51 1.17-.9.4-2.16.4-1.13 0-2.03-.38-.9-.39-1.54-1.07-.63-.69-.97-1.64t-.34-2.08q0-1.14.36-2.09t1.03-1.64q.66-.68 1.57-1.06.92-.38 2.03-.38t1.97.36 1.46.95l-.63.88q-.06.08-.15.14-.08.07-.24.07-.1 0-.21-.06-.12-.06-.25-.15t-.31-.19q-.17-.11-.4-.19-.23-.09-.54-.15-.3-.06-.7-.06-.68 0-1.24.24-.57.24-.97.7-.41.46-.63 1.12-.23.66-.23 1.51t.24 1.52q.24.66.66 1.12.41.45.97.69.56.25 1.2.25.39 0 .7-.05.31-.04.58-.13.26-.09.49-.23.24-.15.47-.36.07-.06.14-.1.08-.04.17-.04m9.38-7.73v1.54h-3.06v8.58h-1.88v-8.58h-3.05v-1.54zm8.58 0v6.52q0 .86-.21 1.54-.21.69-.62 1.17-.42.48-1.04.74t-1.45.26q-.38 0-.74-.04-.37-.05-.77-.15.03-.28.05-.56.03-.28.05-.56.02-.15.13-.25.1-.09.29-.09.11 0 .31.05.19.05.48.05.4 0 .71-.12.31-.11.52-.37.2-.25.31-.65.1-.4.1-.98v-6.56zm5.07 2.83q.79 0 1.45.25.65.26 1.12.74.46.48.72 1.16.25.69.25 1.54t-.25 1.54q-.26.68-.72 1.16-.47.49-1.12.75-.66.25-1.45.25-.81 0-1.47-.25-.66-.26-1.12-.75-.47-.48-.72-1.16-.26-.69-.26-1.54t.26-1.54q.25-.68.72-1.16.46-.48 1.12-.74.66-.25 1.47-.25m0 6.06q.89 0 1.32-.6t.43-1.76-.43-1.77-1.32-.61q-.91 0-1.35.61t-.44 1.77q0 1.15.44 1.76.44.6 1.35.6m9.32-5.95h1.73v7.18h-1.06q-.34 0-.43-.32l-.12-.57q-.44.45-.97.73-.54.27-1.26.27-.59 0-1.04-.2t-.76-.56q-.3-.37-.46-.87t-.16-1.1v-4.56h1.73v4.56q0 .66.3 1.02.31.36.92.36.45 0 .84-.2t.74-.55zm4.96.43.11.81q.33-.64.8-1.01.46-.37 1.09-.37.5 0 .8.22l-.12 1.3q-.03.12-.1.18-.06.05-.18.05-.1 0-.31-.04-.2-.03-.4-.03-.29 0-.51.08-.22.09-.4.24-.18.16-.32.38-.13.23-.25.52v4.42h-1.73v-7.18h1.01q.27 0 .37.09.11.1.14.34m5.2-.12.12.57q.21-.22.45-.4.25-.19.52-.32t.57-.2q.31-.07.68-.07.58 0 1.04.2.45.19.76.56.3.36.46.86t.16 1.1v4.57h-1.73v-4.57q0-.66-.3-1.02t-.92-.36q-.45 0-.84.2-.39.21-.74.56v5.19H79.1v-7.18h1.06q.33 0 .44.31m10.19 5.02v-1.22q-.75.04-1.26.13-.51.1-.82.25-.31.14-.44.34-.13.19-.13.42 0 .46.27.66.27.19.7.19.53 0 .92-.19t.76-.58m-3.65-3.78-.31-.55q1.24-1.14 2.98-1.14.63 0 1.13.21.49.21.84.58.34.36.52.87t.18 1.12v4.54h-.79q-.24 0-.38-.07-.13-.08-.21-.3l-.15-.52q-.27.25-.53.43-.26.19-.54.31-.28.13-.6.2-.32.06-.7.06-.46 0-.84-.12-.39-.12-.67-.37-.28-.24-.43-.61-.16-.36-.16-.84 0-.28.1-.55.09-.27.29-.51.21-.25.54-.46.33-.22.81-.38t1.11-.26q.64-.1 1.46-.13v-.42q0-.72-.31-1.06-.31-.35-.89-.35-.42 0-.69.1-.28.1-.49.22t-.38.22-.38.1q-.19 0-.31-.1-.13-.09-.2-.22m6.98-4.77h1.73v10.4h-1.73z"/></svg>